# xmcd
#
# Track frame offsets:
#	150
#	65332
#	102532
#	143782
#	165807
#	176965
#	207522
#
# Disc length: 3096 seconds
#
# Revision: 1
# Processed by: cddbd v1.5.1PL0 Copyright (c) Steve Scherf et al.
# Submitted via: CDex 1.50Beta5
#
DISCID=620c1607
DTITLE=Glenn Gould - Schoenberg: Piano Concerto, Op.42 - Mozart: Piano Concerto N召4 In C Minor
DYEAR=1962
DGENRE=Contemporary
TTITLE0=Piano Concerto N召4 In C Minor, K.491 - 1. Allegro
TTITLE1=Piano Concerto N召4 In C Minor, K.491 - 2. Larghetto
TTITLE2=Piano Concerto N召4 In C Minor, K.491 - 3. Allegretto
TTITLE3=Concerto For Piano And Orchestra, Op.42 - Andante
TTITLE4=Concerto For Piano And Orchestra, Op.42 - Molto Allegro
TTITLE5=Concerto For Piano And Orchestra, Op.42 - Adagio
TTITLE6=Concerto For Piano And Orchestra, Op.42 - Giocoso (Moderato)
EXTD=DISCO JAPONES
EXTT0=
EXTT1=
EXTT2=
EXTT3=
EXTT4=
EXTT5=
EXTT6=
PLAYORDER=
